<svg class="rich-terminal" viewBox="0 0 1238 904.0" xmlns="http://www.w3.org/2000/svg">
    <!-- Generated with Rich https://www.textualize.io -->
    <style>

    @font-face {
        font-family: "Fira Code";
        src: local("FiraCode-Regular"),
                url("https://cdnjs.cloudflare.com/ajax/libs/firacode/6.2.0/woff2/FiraCode-Regular.woff2") format("woff2"),
                url("https://cdnjs.cloudflare.com/ajax/libs/firacode/6.2.0/woff/FiraCode-Regular.woff") format("woff");
        font-style: normal;
        font-weight: 400;
    }
    @font-face {
        font-family: "Fira Code";
        src: local("FiraCode-Bold"),
                url("https://cdnjs.cloudflare.com/ajax/libs/firacode/6.2.0/woff2/FiraCode-Bold.woff2") format("woff2"),
                url("https://cdnjs.cloudflare.com/ajax/libs/firacode/6.2.0/woff/FiraCode-Bold.woff") format("woff");
        font-style: bold;
        font-weight: 700;
    }

    .terminal-1374277269-matrix {
        font-family: Fira Code, monospace;
        font-size: 20px;
        line-height: 24.4px;
        font-variant-east-asian: full-width;
    }

    .terminal-1374277269-title {
        font-size: 18px;
        font-weight: bold;
        font-family: arial;
    }

    .terminal-1374277269-r1 { fill: #c5c8c6 }
.terminal-1374277269-r2 { fill: #98a84b;font-weight: bold }
.terminal-1374277269-r3 { fill: #868887 }
.terminal-1374277269-r4 { fill: #4e707b;font-weight: bold }
.terminal-1374277269-r5 { fill: #98a84b }
.terminal-1374277269-r6 { fill: #1984e9;font-weight: bold;text-decoration: underline; }
.terminal-1374277269-r7 { fill: #68a0b3;font-weight: bold }
.terminal-1374277269-r8 { fill: #f8f8f2 }
.terminal-1374277269-r9 { fill: #ae81ff }
.terminal-1374277269-r10 { fill: #e6db74 }
.terminal-1374277269-r11 { fill: #ff4689 }
    </style>

    <defs>
    <clipPath id="terminal-1374277269-clip-terminal">
      <rect x="0" y="0" width="1219.0" height="853.0" />
    </clipPath>
    <clipPath id="terminal-1374277269-line-0">
    <rect x="0" y="1.5" width="1220" height="24.65"/>
            </clipPath>
<clipPath id="terminal-1374277269-line-1">
    <rect x="0" y="25.9" width="1220" height="24.65"/>
            </clipPath>
<clipPath id="terminal-1374277269-line-2">
    <rect x="0" y="50.3" width="1220" height="24.65"/>
            </clipPath>
<clipPath id="terminal-1374277269-line-3">
    <rect x="0" y="74.7" width="1220" height="24.65"/>
            </clipPath>
<clipPath id="terminal-1374277269-line-4">
    <rect x="0" y="99.1" width="1220" height="24.65"/>
            </clipPath>
<clipPath id="terminal-1374277269-line-5">
    <rect x="0" y="123.5" width="1220" height="24.65"/>
            </clipPath>
<clipPath id="terminal-1374277269-line-6">
    <rect x="0" y="147.9" width="1220" height="24.65"/>
            </clipPath>
<clipPath id="terminal-1374277269-line-7">
    <rect x="0" y="172.3" width="1220" height="24.65"/>
            </clipPath>
<clipPath id="terminal-1374277269-line-8">
    <rect x="0" y="196.7" width="1220" height="24.65"/>
            </clipPath>
<clipPath id="terminal-1374277269-line-9">
    <rect x="0" y="221.1" width="1220" height="24.65"/>
            </clipPath>
<clipPath id="terminal-1374277269-line-10">
    <rect x="0" y="245.5" width="1220" height="24.65"/>
            </clipPath>
<clipPath id="terminal-1374277269-line-11">
    <rect x="0" y="269.9" width="1220" height="24.65"/>
            </clipPath>
<clipPath id="terminal-1374277269-line-12">
    <rect x="0" y="294.3" width="1220" height="24.65"/>
            </clipPath>
<clipPath id="terminal-1374277269-line-13">
    <rect x="0" y="318.7" width="1220" height="24.65"/>
            </clipPath>
<clipPath id="terminal-1374277269-line-14">
    <rect x="0" y="343.1" width="1220" height="24.65"/>
            </clipPath>
<clipPath id="terminal-1374277269-line-15">
    <rect x="0" y="367.5" width="1220" height="24.65"/>
            </clipPath>
<clipPath id="terminal-1374277269-line-16">
    <rect x="0" y="391.9" width="1220" height="24.65"/>
            </clipPath>
<clipPath id="terminal-1374277269-line-17">
    <rect x="0" y="416.3" width="1220" height="24.65"/>
            </clipPath>
<clipPath id="terminal-1374277269-line-18">
    <rect x="0" y="440.7" width="1220" height="24.65"/>
            </clipPath>
<clipPath id="terminal-1374277269-line-19">
    <rect x="0" y="465.1" width="1220" height="24.65"/>
            </clipPath>
<clipPath id="terminal-1374277269-line-20">
    <rect x="0" y="489.5" width="1220" height="24.65"/>
            </clipPath>
<clipPath id="terminal-1374277269-line-21">
    <rect x="0" y="513.9" width="1220" height="24.65"/>
            </clipPath>
<clipPath id="terminal-1374277269-line-22">
    <rect x="0" y="538.3" width="1220" height="24.65"/>
            </clipPath>
<clipPath id="terminal-1374277269-line-23">
    <rect x="0" y="562.7" width="1220" height="24.65"/>
            </clipPath>
<clipPath id="terminal-1374277269-line-24">
    <rect x="0" y="587.1" width="1220" height="24.65"/>
            </clipPath>
<clipPath id="terminal-1374277269-line-25">
    <rect x="0" y="611.5" width="1220" height="24.65"/>
            </clipPath>
<clipPath id="terminal-1374277269-line-26">
    <rect x="0" y="635.9" width="1220" height="24.65"/>
            </clipPath>
<clipPath id="terminal-1374277269-line-27">
    <rect x="0" y="660.3" width="1220" height="24.65"/>
            </clipPath>
<clipPath id="terminal-1374277269-line-28">
    <rect x="0" y="684.7" width="1220" height="24.65"/>
            </clipPath>
<clipPath id="terminal-1374277269-line-29">
    <rect x="0" y="709.1" width="1220" height="24.65"/>
            </clipPath>
<clipPath id="terminal-1374277269-line-30">
    <rect x="0" y="733.5" width="1220" height="24.65"/>
            </clipPath>
<clipPath id="terminal-1374277269-line-31">
    <rect x="0" y="757.9" width="1220" height="24.65"/>
            </clipPath>
<clipPath id="terminal-1374277269-line-32">
    <rect x="0" y="782.3" width="1220" height="24.65"/>
            </clipPath>
<clipPath id="terminal-1374277269-line-33">
    <rect x="0" y="806.7" width="1220" height="24.65"/>
            </clipPath>
    </defs>

    <rect fill="#292929" stroke="rgba(255,255,255,0.35)" stroke-width="1" x="1" y="1" width="1236" height="902" rx="8"/><text class="terminal-1374277269-title" fill="#c5c8c6" text-anchor="middle" x="618" y="27">Memory&#160;Vault&#160;—&#160;API&#160;Mode</text>
            <g transform="translate(26,22)">
            <circle cx="0" cy="0" r="7" fill="#ff5f57"/>
            <circle cx="22" cy="0" r="7" fill="#febc2e"/>
            <circle cx="44" cy="0" r="7" fill="#28c840"/>
            </g>
        
    <g transform="translate(9, 41)" clip-path="url(#terminal-1374277269-clip-terminal)">
    <rect fill="#272822" x="0" y="172.3" width="48.8" height="24.65" shape-rendering="crispEdges"/><rect fill="#272822" x="48.8" y="172.3" width="12.2" height="24.65" shape-rendering="crispEdges"/><rect fill="#272822" x="61" y="172.3" width="24.4" height="24.65" shape-rendering="crispEdges"/><rect fill="#272822" x="85.4" y="172.3" width="12.2" height="24.65" shape-rendering="crispEdges"/><rect fill="#272822" x="97.6" y="172.3" width="48.8" height="24.65" shape-rendering="crispEdges"/><rect fill="#272822" x="146.4" y="172.3" width="12.2" height="24.65" shape-rendering="crispEdges"/><rect fill="#272822" x="158.6" y="172.3" width="378.2" height="24.65" shape-rendering="crispEdges"/><rect fill="#272822" x="536.8" y="172.3" width="12.2" height="24.65" shape-rendering="crispEdges"/><rect fill="#272822" x="549" y="172.3" width="12.2" height="24.65" shape-rendering="crispEdges"/><rect fill="#272822" x="561.2" y="172.3" width="658.8" height="24.65" shape-rendering="crispEdges"/><rect fill="#272822" x="0" y="196.7" width="24.4" height="24.65" shape-rendering="crispEdges"/><rect fill="#272822" x="24.4" y="196.7" width="24.4" height="24.65" shape-rendering="crispEdges"/><rect fill="#272822" x="48.8" y="196.7" width="12.2" height="24.65" shape-rendering="crispEdges"/><rect fill="#272822" x="61" y="196.7" width="390.4" height="24.65" shape-rendering="crispEdges"/><rect fill="#272822" x="451.4" y="196.7" width="12.2" height="24.65" shape-rendering="crispEdges"/><rect fill="#272822" x="463.6" y="196.7" width="12.2" height="24.65" shape-rendering="crispEdges"/><rect fill="#272822" x="475.8" y="196.7" width="744.2" height="24.65" shape-rendering="crispEdges"/><rect fill="#272822" x="0" y="221.1" width="24.4" height="24.65" shape-rendering="crispEdges"/><rect fill="#272822" x="24.4" y="221.1" width="24.4" height="24.65" shape-rendering="crispEdges"/><rect fill="#272822" x="48.8" y="221.1" width="12.2" height="24.65" shape-rendering="crispEdges"/><rect fill="#272822" x="61" y="221.1" width="719.8" height="24.65" shape-rendering="crispEdges"/><rect fill="#272822" x="780.8" y="221.1" width="439.2" height="24.65" shape-rendering="crispEdges"/><rect fill="#272822" x="0" y="245.5" width="1220" height="24.65" shape-rendering="crispEdges"/><rect fill="#272822" x="0" y="269.9" width="12.2" height="24.65" shape-rendering="crispEdges"/><rect fill="#272822" x="12.2" y="269.9" width="1207.8" height="24.65" shape-rendering="crispEdges"/><rect fill="#272822" x="0" y="294.3" width="24.4" height="24.65" shape-rendering="crispEdges"/><rect fill="#272822" x="24.4" y="294.3" width="134.2" height="24.65" shape-rendering="crispEdges"/><rect fill="#272822" x="158.6" y="294.3" width="12.2" height="24.65" shape-rendering="crispEdges"/><rect fill="#272822" x="170.8" y="294.3" width="12.2" height="24.65" shape-rendering="crispEdges"/><rect fill="#272822" x="183" y="294.3" width="280.6" height="24.65" shape-rendering="crispEdges"/><rect fill="#272822" x="463.6" y="294.3" width="12.2" height="24.65" shape-rendering="crispEdges"/><rect fill="#272822" x="475.8" y="294.3" width="744.2" height="24.65" shape-rendering="crispEdges"/><rect fill="#272822" x="0" y="318.7" width="24.4" height="24.65" shape-rendering="crispEdges"/><rect fill="#272822" x="24.4" y="318.7" width="158.6" height="24.65" shape-rendering="crispEdges"/><rect fill="#272822" x="183" y="318.7" width="12.2" height="24.65" shape-rendering="crispEdges"/><rect fill="#272822" x="195.2" y="318.7" width="12.2" height="24.65" shape-rendering="crispEdges"/><rect fill="#272822" x="207.4" y="318.7" width="122" height="24.65" shape-rendering="crispEdges"/><rect fill="#272822" x="329.4" y="318.7" width="12.2" height="24.65" shape-rendering="crispEdges"/><rect fill="#272822" x="341.6" y="318.7" width="878.4" height="24.65" shape-rendering="crispEdges"/><rect fill="#272822" x="0" y="343.1" width="24.4" height="24.65" shape-rendering="crispEdges"/><rect fill="#272822" x="24.4" y="343.1" width="219.6" height="24.65" shape-rendering="crispEdges"/><rect fill="#272822" x="244" y="343.1" width="12.2" height="24.65" shape-rendering="crispEdges"/><rect fill="#272822" x="256.2" y="343.1" width="12.2" height="24.65" shape-rendering="crispEdges"/><rect fill="#272822" x="268.4" y="343.1" width="48.8" height="24.65" shape-rendering="crispEdges"/><rect fill="#272822" x="317.2" y="343.1" width="12.2" height="24.65" shape-rendering="crispEdges"/><rect fill="#272822" x="329.4" y="343.1" width="890.6" height="24.65" shape-rendering="crispEdges"/><rect fill="#272822" x="0" y="367.5" width="24.4" height="24.65" shape-rendering="crispEdges"/><rect fill="#272822" x="24.4" y="367.5" width="97.6" height="24.65" shape-rendering="crispEdges"/><rect fill="#272822" x="122" y="367.5" width="12.2" height="24.65" shape-rendering="crispEdges"/><rect fill="#272822" x="134.2" y="367.5" width="12.2" height="24.65" shape-rendering="crispEdges"/><rect fill="#272822" x="146.4" y="367.5" width="24.4" height="24.65" shape-rendering="crispEdges"/><rect fill="#272822" x="170.8" y="367.5" width="12.2" height="24.65" shape-rendering="crispEdges"/><rect fill="#272822" x="183" y="367.5" width="1037" height="24.65" shape-rendering="crispEdges"/><rect fill="#272822" x="0" y="391.9" width="24.4" height="24.65" shape-rendering="crispEdges"/><rect fill="#272822" x="24.4" y="391.9" width="97.6" height="24.65" shape-rendering="crispEdges"/><rect fill="#272822" x="122" y="391.9" width="12.2" height="24.65" shape-rendering="crispEdges"/><rect fill="#272822" x="134.2" y="391.9" width="12.2" height="24.65" shape-rendering="crispEdges"/><rect fill="#272822" x="146.4" y="391.9" width="85.4" height="24.65" shape-rendering="crispEdges"/><rect fill="#272822" x="231.8" y="391.9" width="988.2" height="24.65" shape-rendering="crispEdges"/><rect fill="#272822" x="0" y="416.3" width="12.2" height="24.65" shape-rendering="crispEdges"/><rect fill="#272822" x="12.2" y="416.3" width="1207.8" height="24.65" shape-rendering="crispEdges"/><rect fill="#272822" x="0" y="440.7" width="1220" height="24.65" shape-rendering="crispEdges"/><rect fill="#272822" x="0" y="513.9" width="48.8" height="24.65" shape-rendering="crispEdges"/><rect fill="#272822" x="48.8" y="513.9" width="12.2" height="24.65" shape-rendering="crispEdges"/><rect fill="#272822" x="61" y="513.9" width="1037" height="24.65" shape-rendering="crispEdges"/><rect fill="#272822" x="1098" y="513.9" width="122" height="24.65" shape-rendering="crispEdges"/><rect fill="#272822" x="0" y="538.3" width="1220" height="24.65" shape-rendering="crispEdges"/><rect fill="#272822" x="0" y="562.7" width="12.2" height="24.65" shape-rendering="crispEdges"/><rect fill="#272822" x="12.2" y="562.7" width="1207.8" height="24.65" shape-rendering="crispEdges"/><rect fill="#272822" x="0" y="587.1" width="24.4" height="24.65" shape-rendering="crispEdges"/><rect fill="#272822" x="24.4" y="587.1" width="122" height="24.65" shape-rendering="crispEdges"/><rect fill="#272822" x="146.4" y="587.1" width="12.2" height="24.65" shape-rendering="crispEdges"/><rect fill="#272822" x="158.6" y="587.1" width="12.2" height="24.65" shape-rendering="crispEdges"/><rect fill="#272822" x="170.8" y="587.1" width="12.2" height="24.65" shape-rendering="crispEdges"/><rect fill="#272822" x="183" y="587.1" width="1037" height="24.65" shape-rendering="crispEdges"/><rect fill="#272822" x="0" y="611.5" width="48.8" height="24.65" shape-rendering="crispEdges"/><rect fill="#272822" x="48.8" y="611.5" width="12.2" height="24.65" shape-rendering="crispEdges"/><rect fill="#272822" x="61" y="611.5" width="73.2" height="24.65" shape-rendering="crispEdges"/><rect fill="#272822" x="134.2" y="611.5" width="12.2" height="24.65" shape-rendering="crispEdges"/><rect fill="#272822" x="146.4" y="611.5" width="12.2" height="24.65" shape-rendering="crispEdges"/><rect fill="#272822" x="158.6" y="611.5" width="122" height="24.65" shape-rendering="crispEdges"/><rect fill="#272822" x="280.6" y="611.5" width="12.2" height="24.65" shape-rendering="crispEdges"/><rect fill="#272822" x="292.8" y="611.5" width="48.8" height="24.65" shape-rendering="crispEdges"/><rect fill="#272822" x="341.6" y="611.5" width="85.4" height="24.65" shape-rendering="crispEdges"/><rect fill="#272822" x="427" y="611.5" width="12.2" height="24.65" shape-rendering="crispEdges"/><rect fill="#272822" x="439.2" y="611.5" width="12.2" height="24.65" shape-rendering="crispEdges"/><rect fill="#272822" x="451.4" y="611.5" width="48.8" height="24.65" shape-rendering="crispEdges"/><rect fill="#272822" x="500.2" y="611.5" width="12.2" height="24.65" shape-rendering="crispEdges"/><rect fill="#272822" x="512.4" y="611.5" width="12.2" height="24.65" shape-rendering="crispEdges"/><rect fill="#272822" x="524.6" y="611.5" width="109.8" height="24.65" shape-rendering="crispEdges"/><rect fill="#272822" x="634.4" y="611.5" width="12.2" height="24.65" shape-rendering="crispEdges"/><rect fill="#272822" x="646.6" y="611.5" width="12.2" height="24.65" shape-rendering="crispEdges"/><rect fill="#272822" x="658.8" y="611.5" width="341.6" height="24.65" shape-rendering="crispEdges"/><rect fill="#272822" x="1000.4" y="611.5" width="24.4" height="24.65" shape-rendering="crispEdges"/><rect fill="#272822" x="1024.8" y="611.5" width="195.2" height="24.65" shape-rendering="crispEdges"/><rect fill="#272822" x="0" y="635.9" width="48.8" height="24.65" shape-rendering="crispEdges"/><rect fill="#272822" x="48.8" y="635.9" width="12.2" height="24.65" shape-rendering="crispEdges"/><rect fill="#272822" x="61" y="635.9" width="73.2" height="24.65" shape-rendering="crispEdges"/><rect fill="#272822" x="134.2" y="635.9" width="12.2" height="24.65" shape-rendering="crispEdges"/><rect fill="#272822" x="146.4" y="635.9" width="12.2" height="24.65" shape-rendering="crispEdges"/><rect fill="#272822" x="158.6" y="635.9" width="146.4" height="24.65" shape-rendering="crispEdges"/><rect fill="#272822" x="305" y="635.9" width="12.2" height="24.65" shape-rendering="crispEdges"/><rect fill="#272822" x="317.2" y="635.9" width="24.4" height="24.65" shape-rendering="crispEdges"/><rect fill="#272822" x="341.6" y="635.9" width="85.4" height="24.65" shape-rendering="crispEdges"/><rect fill="#272822" x="427" y="635.9" width="12.2" height="24.65" shape-rendering="crispEdges"/><rect fill="#272822" x="439.2" y="635.9" width="12.2" height="24.65" shape-rendering="crispEdges"/><rect fill="#272822" x="451.4" y="635.9" width="48.8" height="24.65" shape-rendering="crispEdges"/><rect fill="#272822" x="500.2" y="635.9" width="12.2" height="24.65" shape-rendering="crispEdges"/><rect fill="#272822" x="512.4" y="635.9" width="12.2" height="24.65" shape-rendering="crispEdges"/><rect fill="#272822" x="524.6" y="635.9" width="109.8" height="24.65" shape-rendering="crispEdges"/><rect fill="#272822" x="634.4" y="635.9" width="12.2" height="24.65" shape-rendering="crispEdges"/><rect fill="#272822" x="646.6" y="635.9" width="12.2" height="24.65" shape-rendering="crispEdges"/><rect fill="#272822" x="658.8" y="635.9" width="451.4" height="24.65" shape-rendering="crispEdges"/><rect fill="#272822" x="1110.2" y="635.9" width="24.4" height="24.65" shape-rendering="crispEdges"/><rect fill="#272822" x="1134.6" y="635.9" width="85.4" height="24.65" shape-rendering="crispEdges"/><rect fill="#272822" x="0" y="660.3" width="48.8" height="24.65" shape-rendering="crispEdges"/><rect fill="#272822" x="48.8" y="660.3" width="12.2" height="24.65" shape-rendering="crispEdges"/><rect fill="#272822" x="61" y="660.3" width="73.2" height="24.65" shape-rendering="crispEdges"/><rect fill="#272822" x="134.2" y="660.3" width="12.2" height="24.65" shape-rendering="crispEdges"/><rect fill="#272822" x="146.4" y="660.3" width="12.2" height="24.65" shape-rendering="crispEdges"/><rect fill="#272822" x="158.6" y="660.3" width="122" height="24.65" shape-rendering="crispEdges"/><rect fill="#272822" x="280.6" y="660.3" width="12.2" height="24.65" shape-rendering="crispEdges"/><rect fill="#272822" x="292.8" y="660.3" width="48.8" height="24.65" shape-rendering="crispEdges"/><rect fill="#272822" x="341.6" y="660.3" width="85.4" height="24.65" shape-rendering="crispEdges"/><rect fill="#272822" x="427" y="660.3" width="12.2" height="24.65" shape-rendering="crispEdges"/><rect fill="#272822" x="439.2" y="660.3" width="12.2" height="24.65" shape-rendering="crispEdges"/><rect fill="#272822" x="451.4" y="660.3" width="48.8" height="24.65" shape-rendering="crispEdges"/><rect fill="#272822" x="500.2" y="660.3" width="12.2" height="24.65" shape-rendering="crispEdges"/><rect fill="#272822" x="512.4" y="660.3" width="12.2" height="24.65" shape-rendering="crispEdges"/><rect fill="#272822" x="524.6" y="660.3" width="109.8" height="24.65" shape-rendering="crispEdges"/><rect fill="#272822" x="634.4" y="660.3" width="12.2" height="24.65" shape-rendering="crispEdges"/><rect fill="#272822" x="646.6" y="660.3" width="12.2" height="24.65" shape-rendering="crispEdges"/><rect fill="#272822" x="658.8" y="660.3" width="500.2" height="24.65" shape-rendering="crispEdges"/><rect fill="#272822" x="1159" y="660.3" width="12.2" height="24.65" shape-rendering="crispEdges"/><rect fill="#272822" x="1171.2" y="660.3" width="48.8" height="24.65" shape-rendering="crispEdges"/><rect fill="#272822" x="0" y="684.7" width="24.4" height="24.65" shape-rendering="crispEdges"/><rect fill="#272822" x="24.4" y="684.7" width="24.4" height="24.65" shape-rendering="crispEdges"/><rect fill="#272822" x="48.8" y="684.7" width="1171.2" height="24.65" shape-rendering="crispEdges"/><rect fill="#272822" x="0" y="709.1" width="24.4" height="24.65" shape-rendering="crispEdges"/><rect fill="#272822" x="24.4" y="709.1" width="170.8" height="24.65" shape-rendering="crispEdges"/><rect fill="#272822" x="195.2" y="709.1" width="12.2" height="24.65" shape-rendering="crispEdges"/><rect fill="#272822" x="207.4" y="709.1" width="12.2" height="24.65" shape-rendering="crispEdges"/><rect fill="#272822" x="219.6" y="709.1" width="695.4" height="24.65" shape-rendering="crispEdges"/><rect fill="#272822" x="915" y="709.1" width="12.2" height="24.65" shape-rendering="crispEdges"/><rect fill="#272822" x="927.2" y="709.1" width="292.8" height="24.65" shape-rendering="crispEdges"/><rect fill="#272822" x="0" y="733.5" width="24.4" height="24.65" shape-rendering="crispEdges"/><rect fill="#272822" x="24.4" y="733.5" width="170.8" height="24.65" shape-rendering="crispEdges"/><rect fill="#272822" x="195.2" y="733.5" width="12.2" height="24.65" shape-rendering="crispEdges"/><rect fill="#272822" x="207.4" y="733.5" width="12.2" height="24.65" shape-rendering="crispEdges"/><rect fill="#272822" x="219.6" y="733.5" width="24.4" height="24.65" shape-rendering="crispEdges"/><rect fill="#272822" x="244" y="733.5" width="12.2" height="24.65" shape-rendering="crispEdges"/><rect fill="#272822" x="256.2" y="733.5" width="963.8" height="24.65" shape-rendering="crispEdges"/><rect fill="#272822" x="0" y="757.9" width="24.4" height="24.65" shape-rendering="crispEdges"/><rect fill="#272822" x="24.4" y="757.9" width="207.4" height="24.65" shape-rendering="crispEdges"/><rect fill="#272822" x="231.8" y="757.9" width="12.2" height="24.65" shape-rendering="crispEdges"/><rect fill="#272822" x="244" y="757.9" width="12.2" height="24.65" shape-rendering="crispEdges"/><rect fill="#272822" x="256.2" y="757.9" width="36.6" height="24.65" shape-rendering="crispEdges"/><rect fill="#272822" x="292.8" y="757.9" width="927.2" height="24.65" shape-rendering="crispEdges"/><rect fill="#272822" x="0" y="782.3" width="12.2" height="24.65" shape-rendering="crispEdges"/><rect fill="#272822" x="12.2" y="782.3" width="1207.8" height="24.65" shape-rendering="crispEdges"/><rect fill="#272822" x="0" y="806.7" width="1220" height="24.65" shape-rendering="crispEdges"/>
    <g class="terminal-1374277269-matrix">
    <text class="terminal-1374277269-r1" x="1220" y="20" textLength="12.2" clip-path="url(#terminal-1374277269-line-0)">
</text><text class="terminal-1374277269-r2" x="0" y="44.4" textLength="12.2" clip-path="url(#terminal-1374277269-line-1)">$</text><text class="terminal-1374277269-r3" x="24.4" y="44.4" textLength="500.2" clip-path="url(#terminal-1374277269-line-1)">uvicorn&#160;memory_vault.api.main:app&#160;--port&#160;</text><text class="terminal-1374277269-r4" x="524.6" y="44.4" textLength="48.8" clip-path="url(#terminal-1374277269-line-1)">8000</text><text class="terminal-1374277269-r1" x="1220" y="44.4" textLength="12.2" clip-path="url(#terminal-1374277269-line-1)">
</text><text class="terminal-1374277269-r5" x="0" y="68.8" textLength="48.8" clip-path="url(#terminal-1374277269-line-2)">INFO</text><text class="terminal-1374277269-r1" x="48.8" y="68.8" textLength="427" clip-path="url(#terminal-1374277269-line-2)">:&#160;&#160;&#160;&#160;&#160;Application&#160;startup&#160;complete.</text><text class="terminal-1374277269-r1" x="1220" y="68.8" textLength="12.2" clip-path="url(#terminal-1374277269-line-2)">
</text><text class="terminal-1374277269-r5" x="0" y="93.2" textLength="48.8" clip-path="url(#terminal-1374277269-line-3)">INFO</text><text class="terminal-1374277269-r1" x="48.8" y="93.2" textLength="305" clip-path="url(#terminal-1374277269-line-3)">:&#160;&#160;&#160;&#160;&#160;Uvicorn&#160;running&#160;on&#160;</text><text class="terminal-1374277269-r6" x="353.8" y="93.2" textLength="231.8" clip-path="url(#terminal-1374277269-line-3)">http://0.0.0.0:8000</text><text class="terminal-1374277269-r1" x="1220" y="93.2" textLength="12.2" clip-path="url(#terminal-1374277269-line-3)">
</text><text class="terminal-1374277269-r1" x="1220" y="117.6" textLength="12.2" clip-path="url(#terminal-1374277269-line-4)">
</text><text class="terminal-1374277269-r7" x="0" y="142" textLength="195.2" clip-path="url(#terminal-1374277269-line-5)">───&#160;Save&#160;Memory&#160;</text><text class="terminal-1374277269-r7" x="195.2" y="142" textLength="12.2" clip-path="url(#terminal-1374277269-line-5)">(</text><text class="terminal-1374277269-r7" x="207.4" y="142" textLength="48.8" clip-path="url(#terminal-1374277269-line-5)">POST</text><text class="terminal-1374277269-r7" x="256.2" y="142" textLength="12.2" clip-path="url(#terminal-1374277269-line-5)">)</text><text class="terminal-1374277269-r7" x="268.4" y="142" textLength="48.8" clip-path="url(#terminal-1374277269-line-5)">&#160;───</text><text class="terminal-1374277269-r1" x="1220" y="142" textLength="12.2" clip-path="url(#terminal-1374277269-line-5)">
</text><text class="terminal-1374277269-r1" x="1220" y="166.4" textLength="12.2" clip-path="url(#terminal-1374277269-line-6)">
</text><text class="terminal-1374277269-r8" x="0" y="190.8" textLength="48.8" clip-path="url(#terminal-1374277269-line-7)">curl</text><text class="terminal-1374277269-r8" x="61" y="190.8" textLength="24.4" clip-path="url(#terminal-1374277269-line-7)">-X</text><text class="terminal-1374277269-r8" x="97.6" y="190.8" textLength="48.8" clip-path="url(#terminal-1374277269-line-7)">POST</text><text class="terminal-1374277269-r8" x="158.6" y="190.8" textLength="378.2" clip-path="url(#terminal-1374277269-line-7)">http://localhost:8000/v1/memory</text><text class="terminal-1374277269-r9" x="549" y="190.8" textLength="12.2" clip-path="url(#terminal-1374277269-line-7)">\</text><text class="terminal-1374277269-r1" x="1220" y="190.8" textLength="12.2" clip-path="url(#terminal-1374277269-line-7)">
</text><text class="terminal-1374277269-r8" x="24.4" y="215.2" textLength="24.4" clip-path="url(#terminal-1374277269-line-8)">-H</text><text class="terminal-1374277269-r10" x="61" y="215.2" textLength="390.4" clip-path="url(#terminal-1374277269-line-8)">&quot;Content-Type:&#160;application/json&quot;</text><text class="terminal-1374277269-r9" x="463.6" y="215.2" textLength="12.2" clip-path="url(#terminal-1374277269-line-8)">\</text><text class="terminal-1374277269-r1" x="1220" y="215.2" textLength="12.2" clip-path="url(#terminal-1374277269-line-8)">
</text><text class="terminal-1374277269-r8" x="24.4" y="239.6" textLength="24.4" clip-path="url(#terminal-1374277269-line-9)">-d</text><text class="terminal-1374277269-r10" x="61" y="239.6" textLength="719.8" clip-path="url(#terminal-1374277269-line-9)">&#x27;{&quot;user_id&quot;:&#160;&quot;alice&quot;,&#160;&quot;content&quot;:&#160;&quot;I&#160;prefer&#160;dark&#160;mode&#160;UI.&quot;}&#x27;</text><text class="terminal-1374277269-r1" x="1220" y="239.6" textLength="12.2" clip-path="url(#terminal-1374277269-line-9)">
</text><text class="terminal-1374277269-r1" x="1220" y="264" textLength="12.2" clip-path="url(#terminal-1374277269-line-10)">
</text><text class="terminal-1374277269-r8" x="0" y="288.4" textLength="12.2" clip-path="url(#terminal-1374277269-line-11)">{</text><text class="terminal-1374277269-r1" x="1220" y="288.4" textLength="12.2" clip-path="url(#terminal-1374277269-line-11)">
</text><text class="terminal-1374277269-r11" x="24.4" y="312.8" textLength="134.2" clip-path="url(#terminal-1374277269-line-12)">&quot;memory_id&quot;</text><text class="terminal-1374277269-r8" x="158.6" y="312.8" textLength="12.2" clip-path="url(#terminal-1374277269-line-12)">:</text><text class="terminal-1374277269-r10" x="183" y="312.8" textLength="280.6" clip-path="url(#terminal-1374277269-line-12)">&quot;d4a2-4f3b-8e91-abc123&quot;</text><text class="terminal-1374277269-r8" x="463.6" y="312.8" textLength="12.2" clip-path="url(#terminal-1374277269-line-12)">,</text><text class="terminal-1374277269-r1" x="1220" y="312.8" textLength="12.2" clip-path="url(#terminal-1374277269-line-12)">
</text><text class="terminal-1374277269-r11" x="24.4" y="337.2" textLength="158.6" clip-path="url(#terminal-1374277269-line-13)">&quot;memory_type&quot;</text><text class="terminal-1374277269-r8" x="183" y="337.2" textLength="12.2" clip-path="url(#terminal-1374277269-line-13)">:</text><text class="terminal-1374277269-r10" x="207.4" y="337.2" textLength="122" clip-path="url(#terminal-1374277269-line-13)">&quot;semantic&quot;</text><text class="terminal-1374277269-r8" x="329.4" y="337.2" textLength="12.2" clip-path="url(#terminal-1374277269-line-13)">,</text><text class="terminal-1374277269-r1" x="1220" y="337.2" textLength="12.2" clip-path="url(#terminal-1374277269-line-13)">
</text><text class="terminal-1374277269-r11" x="24.4" y="361.6" textLength="219.6" clip-path="url(#terminal-1374277269-line-14)">&quot;importance_score&quot;</text><text class="terminal-1374277269-r8" x="244" y="361.6" textLength="12.2" clip-path="url(#terminal-1374277269-line-14)">:</text><text class="terminal-1374277269-r9" x="268.4" y="361.6" textLength="48.8" clip-path="url(#terminal-1374277269-line-14)">0.88</text><text class="terminal-1374277269-r8" x="317.2" y="361.6" textLength="12.2" clip-path="url(#terminal-1374277269-line-14)">,</text><text class="terminal-1374277269-r1" x="1220" y="361.6" textLength="12.2" clip-path="url(#terminal-1374277269-line-14)">
</text><text class="terminal-1374277269-r11" x="24.4" y="386" textLength="97.6" clip-path="url(#terminal-1374277269-line-15)">&quot;tokens&quot;</text><text class="terminal-1374277269-r8" x="122" y="386" textLength="12.2" clip-path="url(#terminal-1374277269-line-15)">:</text><text class="terminal-1374277269-r9" x="146.4" y="386" textLength="24.4" clip-path="url(#terminal-1374277269-line-15)">14</text><text class="terminal-1374277269-r8" x="170.8" y="386" textLength="12.2" clip-path="url(#terminal-1374277269-line-15)">,</text><text class="terminal-1374277269-r1" x="1220" y="386" textLength="12.2" clip-path="url(#terminal-1374277269-line-15)">
</text><text class="terminal-1374277269-r11" x="24.4" y="410.4" textLength="97.6" clip-path="url(#terminal-1374277269-line-16)">&quot;status&quot;</text><text class="terminal-1374277269-r8" x="122" y="410.4" textLength="12.2" clip-path="url(#terminal-1374277269-line-16)">:</text><text class="terminal-1374277269-r10" x="146.4" y="410.4" textLength="85.4" clip-path="url(#terminal-1374277269-line-16)">&quot;saved&quot;</text><text class="terminal-1374277269-r1" x="1220" y="410.4" textLength="12.2" clip-path="url(#terminal-1374277269-line-16)">
</text><text class="terminal-1374277269-r8" x="0" y="434.8" textLength="12.2" clip-path="url(#terminal-1374277269-line-17)">}</text><text class="terminal-1374277269-r1" x="1220" y="434.8" textLength="12.2" clip-path="url(#terminal-1374277269-line-17)">
</text><text class="terminal-1374277269-r1" x="1220" y="459.2" textLength="12.2" clip-path="url(#terminal-1374277269-line-18)">
</text><text class="terminal-1374277269-r7" x="0" y="483.6" textLength="244" clip-path="url(#terminal-1374277269-line-19)">───&#160;Recall&#160;Memories&#160;</text><text class="terminal-1374277269-r7" x="244" y="483.6" textLength="12.2" clip-path="url(#terminal-1374277269-line-19)">(</text><text class="terminal-1374277269-r7" x="256.2" y="483.6" textLength="36.6" clip-path="url(#terminal-1374277269-line-19)">GET</text><text class="terminal-1374277269-r7" x="292.8" y="483.6" textLength="12.2" clip-path="url(#terminal-1374277269-line-19)">)</text><text class="terminal-1374277269-r7" x="305" y="483.6" textLength="48.8" clip-path="url(#terminal-1374277269-line-19)">&#160;───</text><text class="terminal-1374277269-r1" x="1220" y="483.6" textLength="12.2" clip-path="url(#terminal-1374277269-line-19)">
</text><text class="terminal-1374277269-r1" x="1220" y="508" textLength="12.2" clip-path="url(#terminal-1374277269-line-20)">
</text><text class="terminal-1374277269-r8" x="0" y="532.4" textLength="48.8" clip-path="url(#terminal-1374277269-line-21)">curl</text><text class="terminal-1374277269-r10" x="61" y="532.4" textLength="1037" clip-path="url(#terminal-1374277269-line-21)">&quot;http://localhost:8000/v1/memory/recall?user_id=alice&amp;query=user+preferences&amp;top_k=3&quot;</text><text class="terminal-1374277269-r1" x="1220" y="532.4" textLength="12.2" clip-path="url(#terminal-1374277269-line-21)">
</text><text class="terminal-1374277269-r1" x="1220" y="556.8" textLength="12.2" clip-path="url(#terminal-1374277269-line-22)">
</text><text class="terminal-1374277269-r8" x="0" y="581.2" textLength="12.2" clip-path="url(#terminal-1374277269-line-23)">{</text><text class="terminal-1374277269-r1" x="1220" y="581.2" textLength="12.2" clip-path="url(#terminal-1374277269-line-23)">
</text><text class="terminal-1374277269-r11" x="24.4" y="605.6" textLength="122" clip-path="url(#terminal-1374277269-line-24)">&quot;memories&quot;</text><text class="terminal-1374277269-r8" x="146.4" y="605.6" textLength="12.2" clip-path="url(#terminal-1374277269-line-24)">:</text><text class="terminal-1374277269-r8" x="170.8" y="605.6" textLength="12.2" clip-path="url(#terminal-1374277269-line-24)">[</text><text class="terminal-1374277269-r1" x="1220" y="605.6" textLength="12.2" clip-path="url(#terminal-1374277269-line-24)">
</text><text class="terminal-1374277269-r8" x="48.8" y="630" textLength="12.2" clip-path="url(#terminal-1374277269-line-25)">{</text><text class="terminal-1374277269-r11" x="61" y="630" textLength="73.2" clip-path="url(#terminal-1374277269-line-25)">&quot;type&quot;</text><text class="terminal-1374277269-r8" x="134.2" y="630" textLength="12.2" clip-path="url(#terminal-1374277269-line-25)">:</text><text class="terminal-1374277269-r10" x="158.6" y="630" textLength="122" clip-path="url(#terminal-1374277269-line-25)">&quot;semantic&quot;</text><text class="terminal-1374277269-r8" x="280.6" y="630" textLength="12.2" clip-path="url(#terminal-1374277269-line-25)">,</text><text class="terminal-1374277269-r11" x="341.6" y="630" textLength="85.4" clip-path="url(#terminal-1374277269-line-25)">&quot;score&quot;</text><text class="terminal-1374277269-r8" x="427" y="630" textLength="12.2" clip-path="url(#terminal-1374277269-line-25)">:</text><text class="terminal-1374277269-r9" x="451.4" y="630" textLength="48.8" clip-path="url(#terminal-1374277269-line-25)">0.94</text><text class="terminal-1374277269-r8" x="500.2" y="630" textLength="12.2" clip-path="url(#terminal-1374277269-line-25)">,</text><text class="terminal-1374277269-r11" x="524.6" y="630" textLength="109.8" clip-path="url(#terminal-1374277269-line-25)">&quot;content&quot;</text><text class="terminal-1374277269-r8" x="634.4" y="630" textLength="12.2" clip-path="url(#terminal-1374277269-line-25)">:</text><text class="terminal-1374277269-r10" x="658.8" y="630" textLength="341.6" clip-path="url(#terminal-1374277269-line-25)">&quot;User&#160;prefers&#160;dark&#160;mode&#160;UI.&quot;</text><text class="terminal-1374277269-r8" x="1000.4" y="630" textLength="24.4" clip-path="url(#terminal-1374277269-line-25)">},</text><text class="terminal-1374277269-r1" x="1220" y="630" textLength="12.2" clip-path="url(#terminal-1374277269-line-25)">
</text><text class="terminal-1374277269-r8" x="48.8" y="654.4" textLength="12.2" clip-path="url(#terminal-1374277269-line-26)">{</text><text class="terminal-1374277269-r11" x="61" y="654.4" textLength="73.2" clip-path="url(#terminal-1374277269-line-26)">&quot;type&quot;</text><text class="terminal-1374277269-r8" x="134.2" y="654.4" textLength="12.2" clip-path="url(#terminal-1374277269-line-26)">:</text><text class="terminal-1374277269-r10" x="158.6" y="654.4" textLength="146.4" clip-path="url(#terminal-1374277269-line-26)">&quot;procedural&quot;</text><text class="terminal-1374277269-r8" x="305" y="654.4" textLength="12.2" clip-path="url(#terminal-1374277269-line-26)">,</text><text class="terminal-1374277269-r11" x="341.6" y="654.4" textLength="85.4" clip-path="url(#terminal-1374277269-line-26)">&quot;score&quot;</text><text class="terminal-1374277269-r8" x="427" y="654.4" textLength="12.2" clip-path="url(#terminal-1374277269-line-26)">:</text><text class="terminal-1374277269-r9" x="451.4" y="654.4" textLength="48.8" clip-path="url(#terminal-1374277269-line-26)">0.82</text><text class="terminal-1374277269-r8" x="500.2" y="654.4" textLength="12.2" clip-path="url(#terminal-1374277269-line-26)">,</text><text class="terminal-1374277269-r11" x="524.6" y="654.4" textLength="109.8" clip-path="url(#terminal-1374277269-line-26)">&quot;content&quot;</text><text class="terminal-1374277269-r8" x="634.4" y="654.4" textLength="12.2" clip-path="url(#terminal-1374277269-line-26)">:</text><text class="terminal-1374277269-r10" x="658.8" y="654.4" textLength="451.4" clip-path="url(#terminal-1374277269-line-26)">&quot;Communication:&#160;concise,&#160;code-first.&quot;</text><text class="terminal-1374277269-r8" x="1110.2" y="654.4" textLength="24.4" clip-path="url(#terminal-1374277269-line-26)">},</text><text class="terminal-1374277269-r1" x="1220" y="654.4" textLength="12.2" clip-path="url(#terminal-1374277269-line-26)">
</text><text class="terminal-1374277269-r8" x="48.8" y="678.8" textLength="12.2" clip-path="url(#terminal-1374277269-line-27)">{</text><text class="terminal-1374277269-r11" x="61" y="678.8" textLength="73.2" clip-path="url(#terminal-1374277269-line-27)">&quot;type&quot;</text><text class="terminal-1374277269-r8" x="134.2" y="678.8" textLength="12.2" clip-path="url(#terminal-1374277269-line-27)">:</text><text class="terminal-1374277269-r10" x="158.6" y="678.8" textLength="122" clip-path="url(#terminal-1374277269-line-27)">&quot;episodic&quot;</text><text class="terminal-1374277269-r8" x="280.6" y="678.8" textLength="12.2" clip-path="url(#terminal-1374277269-line-27)">,</text><text class="terminal-1374277269-r11" x="341.6" y="678.8" textLength="85.4" clip-path="url(#terminal-1374277269-line-27)">&quot;score&quot;</text><text class="terminal-1374277269-r8" x="427" y="678.8" textLength="12.2" clip-path="url(#terminal-1374277269-line-27)">:</text><text class="terminal-1374277269-r9" x="451.4" y="678.8" textLength="48.8" clip-path="url(#terminal-1374277269-line-27)">0.78</text><text class="terminal-1374277269-r8" x="500.2" y="678.8" textLength="12.2" clip-path="url(#terminal-1374277269-line-27)">,</text><text class="terminal-1374277269-r11" x="524.6" y="678.8" textLength="109.8" clip-path="url(#terminal-1374277269-line-27)">&quot;content&quot;</text><text class="terminal-1374277269-r8" x="634.4" y="678.8" textLength="12.2" clip-path="url(#terminal-1374277269-line-27)">:</text><text class="terminal-1374277269-r10" x="658.8" y="678.8" textLength="500.2" clip-path="url(#terminal-1374277269-line-27)">&quot;User&#160;is&#160;a&#160;backend&#160;engineer&#160;named&#160;Alice.&quot;</text><text class="terminal-1374277269-r8" x="1159" y="678.8" textLength="12.2" clip-path="url(#terminal-1374277269-line-27)">}</text><text class="terminal-1374277269-r1" x="1220" y="678.8" textLength="12.2" clip-path="url(#terminal-1374277269-line-27)">
</text><text class="terminal-1374277269-r8" x="24.4" y="703.2" textLength="24.4" clip-path="url(#terminal-1374277269-line-28)">],</text><text class="terminal-1374277269-r1" x="1220" y="703.2" textLength="12.2" clip-path="url(#terminal-1374277269-line-28)">
</text><text class="terminal-1374277269-r11" x="24.4" y="727.6" textLength="170.8" clip-path="url(#terminal-1374277269-line-29)">&quot;prompt_block&quot;</text><text class="terminal-1374277269-r8" x="195.2" y="727.6" textLength="12.2" clip-path="url(#terminal-1374277269-line-29)">:</text><text class="terminal-1374277269-r10" x="219.6" y="727.6" textLength="695.4" clip-path="url(#terminal-1374277269-line-29)">&quot;##&#160;Recalled&#160;Memories\n-&#160;User&#160;prefers&#160;dark&#160;mode&#160;UI.\n...&quot;</text><text class="terminal-1374277269-r8" x="915" y="727.6" textLength="12.2" clip-path="url(#terminal-1374277269-line-29)">,</text><text class="terminal-1374277269-r1" x="1220" y="727.6" textLength="12.2" clip-path="url(#terminal-1374277269-line-29)">
</text><text class="terminal-1374277269-r11" x="24.4" y="752" textLength="170.8" clip-path="url(#terminal-1374277269-line-30)">&quot;total_tokens&quot;</text><text class="terminal-1374277269-r8" x="195.2" y="752" textLength="12.2" clip-path="url(#terminal-1374277269-line-30)">:</text><text class="terminal-1374277269-r9" x="219.6" y="752" textLength="24.4" clip-path="url(#terminal-1374277269-line-30)">42</text><text class="terminal-1374277269-r8" x="244" y="752" textLength="12.2" clip-path="url(#terminal-1374277269-line-30)">,</text><text class="terminal-1374277269-r1" x="1220" y="752" textLength="12.2" clip-path="url(#terminal-1374277269-line-30)">
</text><text class="terminal-1374277269-r11" x="24.4" y="776.4" textLength="207.4" clip-path="url(#terminal-1374277269-line-31)">&quot;budget_used_pct&quot;</text><text class="terminal-1374277269-r8" x="231.8" y="776.4" textLength="12.2" clip-path="url(#terminal-1374277269-line-31)">:</text><text class="terminal-1374277269-r9" x="256.2" y="776.4" textLength="36.6" clip-path="url(#terminal-1374277269-line-31)">2.1</text><text class="terminal-1374277269-r1" x="1220" y="776.4" textLength="12.2" clip-path="url(#terminal-1374277269-line-31)">
</text><text class="terminal-1374277269-r8" x="0" y="800.8" textLength="12.2" clip-path="url(#terminal-1374277269-line-32)">}</text><text class="terminal-1374277269-r1" x="1220" y="800.8" textLength="12.2" clip-path="url(#terminal-1374277269-line-32)">
</text><text class="terminal-1374277269-r1" x="1220" y="825.2" textLength="12.2" clip-path="url(#terminal-1374277269-line-33)">
</text><text class="terminal-1374277269-r1" x="1220" y="849.6" textLength="12.2" clip-path="url(#terminal-1374277269-line-34)">
</text>
    </g>
    </g>
</svg>
