<svg class="rich-terminal" viewBox="0 0 1116 806.4" xmlns="http://www.w3.org/2000/svg">
    <!-- Generated with Rich https://www.textualize.io -->
    <style>

    @font-face {
        font-family: "Fira Code";
        src: local("FiraCode-Regular"),
                url("https://cdnjs.cloudflare.com/ajax/libs/firacode/6.2.0/woff2/FiraCode-Regular.woff2") format("woff2"),
                url("https://cdnjs.cloudflare.com/ajax/libs/firacode/6.2.0/woff/FiraCode-Regular.woff") format("woff");
        font-style: normal;
        font-weight: 400;
    }
    @font-face {
        font-family: "Fira Code";
        src: local("FiraCode-Bold"),
                url("https://cdnjs.cloudflare.com/ajax/libs/firacode/6.2.0/woff2/FiraCode-Bold.woff2") format("woff2"),
                url("https://cdnjs.cloudflare.com/ajax/libs/firacode/6.2.0/woff/FiraCode-Bold.woff") format("woff");
        font-style: bold;
        font-weight: 700;
    }

    .terminal-1878493209-matrix {
        font-family: Fira Code, monospace;
        font-size: 20px;
        line-height: 24.4px;
        font-variant-east-asian: full-width;
    }

    .terminal-1878493209-title {
        font-size: 18px;
        font-weight: bold;
        font-family: arial;
    }

    .terminal-1878493209-r1 { fill: #c5c8c6 }
.terminal-1878493209-r2 { fill: #98a84b;font-weight: bold }
.terminal-1878493209-r3 { fill: #868887 }
.terminal-1878493209-r4 { fill: #858884 }
.terminal-1878493209-r5 { fill: #ff4689 }
.terminal-1878493209-r6 { fill: #f8f8f2 }
.terminal-1878493209-r7 { fill: #66d9ef }
.terminal-1878493209-r8 { fill: #a6e22e }
.terminal-1878493209-r9 { fill: #e6db74 }
.terminal-1878493209-r10 { fill: #959077 }
.terminal-1878493209-r11 { fill: #68a0b3;font-weight: bold }
.terminal-1878493209-r12 { fill: #98a84b }
.terminal-1878493209-r13 { fill: #868887;font-style: italic; }
    </style>

    <defs>
    <clipPath id="terminal-1878493209-clip-terminal">
      <rect x="0" y="0" width="1097.0" height="755.4" />
    </clipPath>
    <clipPath id="terminal-1878493209-line-0">
    <rect x="0" y="1.5" width="1098" height="24.65"/>
            </clipPath>
<clipPath id="terminal-1878493209-line-1">
    <rect x="0" y="25.9" width="1098" height="24.65"/>
            </clipPath>
<clipPath id="terminal-1878493209-line-2">
    <rect x="0" y="50.3" width="1098" height="24.65"/>
            </clipPath>
<clipPath id="terminal-1878493209-line-3">
    <rect x="0" y="74.7" width="1098" height="24.65"/>
            </clipPath>
<clipPath id="terminal-1878493209-line-4">
    <rect x="0" y="99.1" width="1098" height="24.65"/>
            </clipPath>
<clipPath id="terminal-1878493209-line-5">
    <rect x="0" y="123.5" width="1098" height="24.65"/>
            </clipPath>
<clipPath id="terminal-1878493209-line-6">
    <rect x="0" y="147.9" width="1098" height="24.65"/>
            </clipPath>
<clipPath id="terminal-1878493209-line-7">
    <rect x="0" y="172.3" width="1098" height="24.65"/>
            </clipPath>
<clipPath id="terminal-1878493209-line-8">
    <rect x="0" y="196.7" width="1098" height="24.65"/>
            </clipPath>
<clipPath id="terminal-1878493209-line-9">
    <rect x="0" y="221.1" width="1098" height="24.65"/>
            </clipPath>
<clipPath id="terminal-1878493209-line-10">
    <rect x="0" y="245.5" width="1098" height="24.65"/>
            </clipPath>
<clipPath id="terminal-1878493209-line-11">
    <rect x="0" y="269.9" width="1098" height="24.65"/>
            </clipPath>
<clipPath id="terminal-1878493209-line-12">
    <rect x="0" y="294.3" width="1098" height="24.65"/>
            </clipPath>
<clipPath id="terminal-1878493209-line-13">
    <rect x="0" y="318.7" width="1098" height="24.65"/>
            </clipPath>
<clipPath id="terminal-1878493209-line-14">
    <rect x="0" y="343.1" width="1098" height="24.65"/>
            </clipPath>
<clipPath id="terminal-1878493209-line-15">
    <rect x="0" y="367.5" width="1098" height="24.65"/>
            </clipPath>
<clipPath id="terminal-1878493209-line-16">
    <rect x="0" y="391.9" width="1098" height="24.65"/>
            </clipPath>
<clipPath id="terminal-1878493209-line-17">
    <rect x="0" y="416.3" width="1098" height="24.65"/>
            </clipPath>
<clipPath id="terminal-1878493209-line-18">
    <rect x="0" y="440.7" width="1098" height="24.65"/>
            </clipPath>
<clipPath id="terminal-1878493209-line-19">
    <rect x="0" y="465.1" width="1098" height="24.65"/>
            </clipPath>
<clipPath id="terminal-1878493209-line-20">
    <rect x="0" y="489.5" width="1098" height="24.65"/>
            </clipPath>
<clipPath id="terminal-1878493209-line-21">
    <rect x="0" y="513.9" width="1098" height="24.65"/>
            </clipPath>
<clipPath id="terminal-1878493209-line-22">
    <rect x="0" y="538.3" width="1098" height="24.65"/>
            </clipPath>
<clipPath id="terminal-1878493209-line-23">
    <rect x="0" y="562.7" width="1098" height="24.65"/>
            </clipPath>
<clipPath id="terminal-1878493209-line-24">
    <rect x="0" y="587.1" width="1098" height="24.65"/>
            </clipPath>
<clipPath id="terminal-1878493209-line-25">
    <rect x="0" y="611.5" width="1098" height="24.65"/>
            </clipPath>
<clipPath id="terminal-1878493209-line-26">
    <rect x="0" y="635.9" width="1098" height="24.65"/>
            </clipPath>
<clipPath id="terminal-1878493209-line-27">
    <rect x="0" y="660.3" width="1098" height="24.65"/>
            </clipPath>
<clipPath id="terminal-1878493209-line-28">
    <rect x="0" y="684.7" width="1098" height="24.65"/>
            </clipPath>
<clipPath id="terminal-1878493209-line-29">
    <rect x="0" y="709.1" width="1098" height="24.65"/>
            </clipPath>
    </defs>

    <rect fill="#292929" stroke="rgba(255,255,255,0.35)" stroke-width="1" x="1" y="1" width="1114" height="804.4" rx="8"/><text class="terminal-1878493209-title" fill="#c5c8c6" text-anchor="middle" x="557" y="27">Memory&#160;Vault&#160;—&#160;SDK&#160;Mode</text>
            <g transform="translate(26,22)">
            <circle cx="0" cy="0" r="7" fill="#ff5f57"/>
            <circle cx="22" cy="0" r="7" fill="#febc2e"/>
            <circle cx="44" cy="0" r="7" fill="#28c840"/>
            </g>
        
    <g transform="translate(9, 41)" clip-path="url(#terminal-1878493209-clip-terminal)">
    <rect fill="#272822" x="0" y="74.7" width="24.4" height="24.65" shape-rendering="crispEdges"/><rect fill="#272822" x="24.4" y="74.7" width="36.6" height="24.65" shape-rendering="crispEdges"/><rect fill="#272822" x="61" y="74.7" width="73.2" height="24.65" shape-rendering="crispEdges"/><rect fill="#272822" x="134.2" y="74.7" width="12.2" height="24.65" shape-rendering="crispEdges"/><rect fill="#272822" x="146.4" y="74.7" width="85.4" height="24.65" shape-rendering="crispEdges"/><rect fill="#272822" x="231.8" y="74.7" width="866.2" height="24.65" shape-rendering="crispEdges"/><rect fill="#272822" x="0" y="99.1" width="24.4" height="24.65" shape-rendering="crispEdges"/><rect fill="#272822" x="24.4" y="99.1" width="36.6" height="24.65" shape-rendering="crispEdges"/><rect fill="#272822" x="61" y="99.1" width="48.8" height="24.65" shape-rendering="crispEdges"/><rect fill="#272822" x="109.8" y="99.1" width="12.2" height="24.65" shape-rendering="crispEdges"/><rect fill="#272822" x="122" y="99.1" width="146.4" height="24.65" shape-rendering="crispEdges"/><rect fill="#272822" x="268.4" y="99.1" width="12.2" height="24.65" shape-rendering="crispEdges"/><rect fill="#272822" x="280.6" y="99.1" width="73.2" height="24.65" shape-rendering="crispEdges"/><rect fill="#272822" x="353.8" y="99.1" width="12.2" height="24.65" shape-rendering="crispEdges"/><rect fill="#272822" x="366" y="99.1" width="134.2" height="24.65" shape-rendering="crispEdges"/><rect fill="#272822" x="500.2" y="99.1" width="597.8" height="24.65" shape-rendering="crispEdges"/><rect fill="#272822" x="0" y="123.5" width="24.4" height="24.65" shape-rendering="crispEdges"/><rect fill="#272822" x="24.4" y="123.5" width="36.6" height="24.65" shape-rendering="crispEdges"/><rect fill="#272822" x="61" y="123.5" width="1037" height="24.65" shape-rendering="crispEdges"/><rect fill="#272822" x="0" y="147.9" width="24.4" height="24.65" shape-rendering="crispEdges"/><rect fill="#272822" x="24.4" y="147.9" width="36.6" height="24.65" shape-rendering="crispEdges"/><rect fill="#272822" x="61" y="147.9" width="61" height="24.65" shape-rendering="crispEdges"/><rect fill="#272822" x="122" y="147.9" width="12.2" height="24.65" shape-rendering="crispEdges"/><rect fill="#272822" x="134.2" y="147.9" width="36.6" height="24.65" shape-rendering="crispEdges"/><rect fill="#272822" x="170.8" y="147.9" width="12.2" height="24.65" shape-rendering="crispEdges"/><rect fill="#272822" x="183" y="147.9" width="48.8" height="24.65" shape-rendering="crispEdges"/><rect fill="#272822" x="231.8" y="147.9" width="12.2" height="24.65" shape-rendering="crispEdges"/><rect fill="#272822" x="244" y="147.9" width="12.2" height="24.65" shape-rendering="crispEdges"/><rect fill="#272822" x="256.2" y="147.9" width="12.2" height="24.65" shape-rendering="crispEdges"/><rect fill="#272822" x="268.4" y="147.9" width="829.6" height="24.65" shape-rendering="crispEdges"/><rect fill="#272822" x="0" y="172.3" width="24.4" height="24.65" shape-rendering="crispEdges"/><rect fill="#272822" x="24.4" y="172.3" width="36.6" height="24.65" shape-rendering="crispEdges"/><rect fill="#272822" x="61" y="172.3" width="48.8" height="24.65" shape-rendering="crispEdges"/><rect fill="#272822" x="109.8" y="172.3" width="73.2" height="24.65" shape-rendering="crispEdges"/><rect fill="#272822" x="183" y="172.3" width="12.2" height="24.65" shape-rendering="crispEdges"/><rect fill="#272822" x="195.2" y="172.3" width="12.2" height="24.65" shape-rendering="crispEdges"/><rect fill="#272822" x="207.4" y="172.3" width="12.2" height="24.65" shape-rendering="crispEdges"/><rect fill="#272822" x="219.6" y="172.3" width="134.2" height="24.65" shape-rendering="crispEdges"/><rect fill="#272822" x="353.8" y="172.3" width="12.2" height="24.65" shape-rendering="crispEdges"/><rect fill="#272822" x="366" y="172.3" width="85.4" height="24.65" shape-rendering="crispEdges"/><rect fill="#272822" x="451.4" y="172.3" width="12.2" height="24.65" shape-rendering="crispEdges"/><rect fill="#272822" x="463.6" y="172.3" width="12.2" height="24.65" shape-rendering="crispEdges"/><rect fill="#272822" x="475.8" y="172.3" width="61" height="24.65" shape-rendering="crispEdges"/><rect fill="#272822" x="536.8" y="172.3" width="12.2" height="24.65" shape-rendering="crispEdges"/><rect fill="#272822" x="549" y="172.3" width="12.2" height="24.65" shape-rendering="crispEdges"/><rect fill="#272822" x="561.2" y="172.3" width="536.8" height="24.65" shape-rendering="crispEdges"/><rect fill="#272822" x="0" y="196.7" width="24.4" height="24.65" shape-rendering="crispEdges"/><rect fill="#272822" x="24.4" y="196.7" width="36.6" height="24.65" shape-rendering="crispEdges"/><rect fill="#272822" x="61" y="196.7" width="1037" height="24.65" shape-rendering="crispEdges"/><rect fill="#272822" x="0" y="221.1" width="24.4" height="24.65" shape-rendering="crispEdges"/><rect fill="#272822" x="24.4" y="221.1" width="36.6" height="24.65" shape-rendering="crispEdges"/><rect fill="#272822" x="61" y="221.1" width="48.8" height="24.65" shape-rendering="crispEdges"/><rect fill="#272822" x="109.8" y="221.1" width="61" height="24.65" shape-rendering="crispEdges"/><rect fill="#272822" x="170.8" y="221.1" width="12.2" height="24.65" shape-rendering="crispEdges"/><rect fill="#272822" x="183" y="221.1" width="73.2" height="24.65" shape-rendering="crispEdges"/><rect fill="#272822" x="256.2" y="221.1" width="12.2" height="24.65" shape-rendering="crispEdges"/><rect fill="#272822" x="268.4" y="221.1" width="48.8" height="24.65" shape-rendering="crispEdges"/><rect fill="#272822" x="317.2" y="221.1" width="12.2" height="24.65" shape-rendering="crispEdges"/><rect fill="#272822" x="329.4" y="221.1" width="12.2" height="24.65" shape-rendering="crispEdges"/><rect fill="#272822" x="341.6" y="221.1" width="231.8" height="24.65" shape-rendering="crispEdges"/><rect fill="#272822" x="573.4" y="221.1" width="12.2" height="24.65" shape-rendering="crispEdges"/><rect fill="#272822" x="585.6" y="221.1" width="256.2" height="24.65" shape-rendering="crispEdges"/><rect fill="#272822" x="841.8" y="221.1" width="12.2" height="24.65" shape-rendering="crispEdges"/><rect fill="#272822" x="854" y="221.1" width="12.2" height="24.65" shape-rendering="crispEdges"/><rect fill="#272822" x="866.2" y="221.1" width="231.8" height="24.65" shape-rendering="crispEdges"/><rect fill="#272822" x="0" y="245.5" width="24.4" height="24.65" shape-rendering="crispEdges"/><rect fill="#272822" x="24.4" y="245.5" width="36.6" height="24.65" shape-rendering="crispEdges"/><rect fill="#272822" x="61" y="245.5" width="48.8" height="24.65" shape-rendering="crispEdges"/><rect fill="#272822" x="109.8" y="245.5" width="61" height="24.65" shape-rendering="crispEdges"/><rect fill="#272822" x="170.8" y="245.5" width="12.2" height="24.65" shape-rendering="crispEdges"/><rect fill="#272822" x="183" y="245.5" width="73.2" height="24.65" shape-rendering="crispEdges"/><rect fill="#272822" x="256.2" y="245.5" width="12.2" height="24.65" shape-rendering="crispEdges"/><rect fill="#272822" x="268.4" y="245.5" width="48.8" height="24.65" shape-rendering="crispEdges"/><rect fill="#272822" x="317.2" y="245.5" width="12.2" height="24.65" shape-rendering="crispEdges"/><rect fill="#272822" x="329.4" y="245.5" width="12.2" height="24.65" shape-rendering="crispEdges"/><rect fill="#272822" x="341.6" y="245.5" width="475.8" height="24.65" shape-rendering="crispEdges"/><rect fill="#272822" x="817.4" y="245.5" width="12.2" height="24.65" shape-rendering="crispEdges"/><rect fill="#272822" x="829.6" y="245.5" width="12.2" height="24.65" shape-rendering="crispEdges"/><rect fill="#272822" x="841.8" y="245.5" width="256.2" height="24.65" shape-rendering="crispEdges"/><rect fill="#272822" x="0" y="269.9" width="24.4" height="24.65" shape-rendering="crispEdges"/><rect fill="#272822" x="24.4" y="269.9" width="36.6" height="24.65" shape-rendering="crispEdges"/><rect fill="#272822" x="61" y="269.9" width="48.8" height="24.65" shape-rendering="crispEdges"/><rect fill="#272822" x="109.8" y="269.9" width="61" height="24.65" shape-rendering="crispEdges"/><rect fill="#272822" x="170.8" y="269.9" width="12.2" height="24.65" shape-rendering="crispEdges"/><rect fill="#272822" x="183" y="269.9" width="73.2" height="24.65" shape-rendering="crispEdges"/><rect fill="#272822" x="256.2" y="269.9" width="12.2" height="24.65" shape-rendering="crispEdges"/><rect fill="#272822" x="268.4" y="269.9" width="48.8" height="24.65" shape-rendering="crispEdges"/><rect fill="#272822" x="317.2" y="269.9" width="12.2" height="24.65" shape-rendering="crispEdges"/><rect fill="#272822" x="329.4" y="269.9" width="12.2" height="24.65" shape-rendering="crispEdges"/><rect fill="#272822" x="341.6" y="269.9" width="12.2" height="24.65" shape-rendering="crispEdges"/><rect fill="#272822" x="353.8" y="269.9" width="12.2" height="24.65" shape-rendering="crispEdges"/><rect fill="#272822" x="366" y="269.9" width="500.2" height="24.65" shape-rendering="crispEdges"/><rect fill="#272822" x="866.2" y="269.9" width="12.2" height="24.65" shape-rendering="crispEdges"/><rect fill="#272822" x="878.4" y="269.9" width="12.2" height="24.65" shape-rendering="crispEdges"/><rect fill="#272822" x="890.6" y="269.9" width="207.4" height="24.65" shape-rendering="crispEdges"/><rect fill="#272822" x="0" y="294.3" width="24.4" height="24.65" shape-rendering="crispEdges"/><rect fill="#272822" x="24.4" y="294.3" width="36.6" height="24.65" shape-rendering="crispEdges"/><rect fill="#272822" x="61" y="294.3" width="1037" height="24.65" shape-rendering="crispEdges"/><rect fill="#272822" x="0" y="318.7" width="24.4" height="24.65" shape-rendering="crispEdges"/><rect fill="#272822" x="24.4" y="318.7" width="36.6" height="24.65" shape-rendering="crispEdges"/><rect fill="#272822" x="61" y="318.7" width="48.8" height="24.65" shape-rendering="crispEdges"/><rect fill="#272822" x="109.8" y="318.7" width="524.6" height="24.65" shape-rendering="crispEdges"/><rect fill="#272822" x="634.4" y="318.7" width="463.6" height="24.65" shape-rendering="crispEdges"/><rect fill="#272822" x="0" y="343.1" width="24.4" height="24.65" shape-rendering="crispEdges"/><rect fill="#272822" x="24.4" y="343.1" width="36.6" height="24.65" shape-rendering="crispEdges"/><rect fill="#272822" x="61" y="343.1" width="48.8" height="24.65" shape-rendering="crispEdges"/><rect fill="#272822" x="109.8" y="343.1" width="73.2" height="24.65" shape-rendering="crispEdges"/><rect fill="#272822" x="183" y="343.1" width="12.2" height="24.65" shape-rendering="crispEdges"/><rect fill="#272822" x="195.2" y="343.1" width="12.2" height="24.65" shape-rendering="crispEdges"/><rect fill="#272822" x="207.4" y="343.1" width="12.2" height="24.65" shape-rendering="crispEdges"/><rect fill="#272822" x="219.6" y="343.1" width="61" height="24.65" shape-rendering="crispEdges"/><rect fill="#272822" x="280.6" y="343.1" width="12.2" height="24.65" shape-rendering="crispEdges"/><rect fill="#272822" x="292.8" y="343.1" width="73.2" height="24.65" shape-rendering="crispEdges"/><rect fill="#272822" x="366" y="343.1" width="12.2" height="24.65" shape-rendering="crispEdges"/><rect fill="#272822" x="378.2" y="343.1" width="73.2" height="24.65" shape-rendering="crispEdges"/><rect fill="#272822" x="451.4" y="343.1" width="12.2" height="24.65" shape-rendering="crispEdges"/><rect fill="#272822" x="463.6" y="343.1" width="12.2" height="24.65" shape-rendering="crispEdges"/><rect fill="#272822" x="475.8" y="343.1" width="317.2" height="24.65" shape-rendering="crispEdges"/><rect fill="#272822" x="793" y="343.1" width="12.2" height="24.65" shape-rendering="crispEdges"/><rect fill="#272822" x="805.2" y="343.1" width="12.2" height="24.65" shape-rendering="crispEdges"/><rect fill="#272822" x="817.4" y="343.1" width="280.6" height="24.65" shape-rendering="crispEdges"/><rect fill="#272822" x="0" y="367.5" width="24.4" height="24.65" shape-rendering="crispEdges"/><rect fill="#272822" x="24.4" y="367.5" width="36.6" height="24.65" shape-rendering="crispEdges"/><rect fill="#272822" x="61" y="367.5" width="48.8" height="24.65" shape-rendering="crispEdges"/><rect fill="#272822" x="109.8" y="367.5" width="61" height="24.65" shape-rendering="crispEdges"/><rect fill="#272822" x="170.8" y="367.5" width="12.2" height="24.65" shape-rendering="crispEdges"/><rect fill="#272822" x="183" y="367.5" width="73.2" height="24.65" shape-rendering="crispEdges"/><rect fill="#272822" x="256.2" y="367.5" width="12.2" height="24.65" shape-rendering="crispEdges"/><rect fill="#272822" x="268.4" y="367.5" width="146.4" height="24.65" shape-rendering="crispEdges"/><rect fill="#272822" x="414.8" y="367.5" width="12.2" height="24.65" shape-rendering="crispEdges"/><rect fill="#272822" x="427" y="367.5" width="671" height="24.65" shape-rendering="crispEdges"/><rect fill="#272822" x="0" y="391.9" width="24.4" height="24.65" shape-rendering="crispEdges"/><rect fill="#272822" x="24.4" y="391.9" width="36.6" height="24.65" shape-rendering="crispEdges"/><rect fill="#272822" x="61" y="391.9" width="1037" height="24.65" shape-rendering="crispEdges"/><rect fill="#272822" x="0" y="416.3" width="24.4" height="24.65" shape-rendering="crispEdges"/><rect fill="#272822" x="24.4" y="416.3" width="36.6" height="24.65" shape-rendering="crispEdges"/><rect fill="#272822" x="61" y="416.3" width="85.4" height="24.65" shape-rendering="crispEdges"/><rect fill="#272822" x="146.4" y="416.3" width="12.2" height="24.65" shape-rendering="crispEdges"/><rect fill="#272822" x="158.6" y="416.3" width="36.6" height="24.65" shape-rendering="crispEdges"/><rect fill="#272822" x="195.2" y="416.3" width="12.2" height="24.65" shape-rendering="crispEdges"/><rect fill="#272822" x="207.4" y="416.3" width="48.8" height="24.65" shape-rendering="crispEdges"/><rect fill="#272822" x="256.2" y="416.3" width="12.2" height="24.65" shape-rendering="crispEdges"/><rect fill="#272822" x="268.4" y="416.3" width="12.2" height="24.65" shape-rendering="crispEdges"/><rect fill="#272822" x="280.6" y="416.3" width="12.2" height="24.65" shape-rendering="crispEdges"/><rect fill="#272822" x="292.8" y="416.3" width="805.2" height="24.65" shape-rendering="crispEdges"/><rect fill="#272822" x="0" y="440.7" width="24.4" height="24.65" shape-rendering="crispEdges"/><rect fill="#272822" x="24.4" y="440.7" width="36.6" height="24.65" shape-rendering="crispEdges"/><rect fill="#272822" x="61" y="440.7" width="1037" height="24.65" shape-rendering="crispEdges"/>
    <g class="terminal-1878493209-matrix">
    <text class="terminal-1878493209-r1" x="1098" y="20" textLength="12.2" clip-path="url(#terminal-1878493209-line-0)">
</text><text class="terminal-1878493209-r2" x="0" y="44.4" textLength="12.2" clip-path="url(#terminal-1878493209-line-1)">$</text><text class="terminal-1878493209-r3" x="24.4" y="44.4" textLength="256.2" clip-path="url(#terminal-1878493209-line-1)">python&#160;sdk_example.py</text><text class="terminal-1878493209-r1" x="1098" y="44.4" textLength="12.2" clip-path="url(#terminal-1878493209-line-1)">
</text><text class="terminal-1878493209-r1" x="1098" y="68.8" textLength="12.2" clip-path="url(#terminal-1878493209-line-2)">
</text><text class="terminal-1878493209-r4" x="24.4" y="93.2" textLength="36.6" clip-path="url(#terminal-1878493209-line-3)">&#160;1&#160;</text><text class="terminal-1878493209-r5" x="61" y="93.2" textLength="73.2" clip-path="url(#terminal-1878493209-line-3)">import</text><text class="terminal-1878493209-r6" x="146.4" y="93.2" textLength="85.4" clip-path="url(#terminal-1878493209-line-3)">asyncio</text><text class="terminal-1878493209-r1" x="1098" y="93.2" textLength="12.2" clip-path="url(#terminal-1878493209-line-3)">
</text><text class="terminal-1878493209-r4" x="24.4" y="117.6" textLength="36.6" clip-path="url(#terminal-1878493209-line-4)">&#160;2&#160;</text><text class="terminal-1878493209-r5" x="61" y="117.6" textLength="48.8" clip-path="url(#terminal-1878493209-line-4)">from</text><text class="terminal-1878493209-r6" x="122" y="117.6" textLength="146.4" clip-path="url(#terminal-1878493209-line-4)">memory_vault</text><text class="terminal-1878493209-r5" x="280.6" y="117.6" textLength="73.2" clip-path="url(#terminal-1878493209-line-4)">import</text><text class="terminal-1878493209-r6" x="366" y="117.6" textLength="134.2" clip-path="url(#terminal-1878493209-line-4)">MemoryLayer</text><text class="terminal-1878493209-r1" x="1098" y="117.6" textLength="12.2" clip-path="url(#terminal-1878493209-line-4)">
</text><text class="terminal-1878493209-r4" x="24.4" y="142" textLength="36.6" clip-path="url(#terminal-1878493209-line-5)">&#160;3&#160;</text><text class="terminal-1878493209-r1" x="1098" y="142" textLength="12.2" clip-path="url(#terminal-1878493209-line-5)">
</text><text class="terminal-1878493209-r4" x="24.4" y="166.4" textLength="36.6" clip-path="url(#terminal-1878493209-line-6)">&#160;4&#160;</text><text class="terminal-1878493209-r7" x="61" y="166.4" textLength="61" clip-path="url(#terminal-1878493209-line-6)">async</text><text class="terminal-1878493209-r7" x="134.2" y="166.4" textLength="36.6" clip-path="url(#terminal-1878493209-line-6)">def</text><text class="terminal-1878493209-r8" x="183" y="166.4" textLength="48.8" clip-path="url(#terminal-1878493209-line-6)">main</text><text class="terminal-1878493209-r6" x="231.8" y="166.4" textLength="12.2" clip-path="url(#terminal-1878493209-line-6)">(</text><text class="terminal-1878493209-r6" x="244" y="166.4" textLength="12.2" clip-path="url(#terminal-1878493209-line-6)">)</text><text class="terminal-1878493209-r6" x="256.2" y="166.4" textLength="12.2" clip-path="url(#terminal-1878493209-line-6)">:</text><text class="terminal-1878493209-r1" x="1098" y="166.4" textLength="12.2" clip-path="url(#terminal-1878493209-line-6)">
</text><text class="terminal-1878493209-r4" x="24.4" y="190.8" textLength="36.6" clip-path="url(#terminal-1878493209-line-7)">&#160;5&#160;</text><text class="terminal-1878493209-r6" x="109.8" y="190.8" textLength="73.2" clip-path="url(#terminal-1878493209-line-7)">memory</text><text class="terminal-1878493209-r5" x="195.2" y="190.8" textLength="12.2" clip-path="url(#terminal-1878493209-line-7)">=</text><text class="terminal-1878493209-r6" x="219.6" y="190.8" textLength="134.2" clip-path="url(#terminal-1878493209-line-7)">MemoryLayer</text><text class="terminal-1878493209-r6" x="353.8" y="190.8" textLength="12.2" clip-path="url(#terminal-1878493209-line-7)">(</text><text class="terminal-1878493209-r6" x="366" y="190.8" textLength="85.4" clip-path="url(#terminal-1878493209-line-7)">user_id</text><text class="terminal-1878493209-r5" x="451.4" y="190.8" textLength="12.2" clip-path="url(#terminal-1878493209-line-7)">=</text><text class="terminal-1878493209-r9" x="463.6" y="190.8" textLength="12.2" clip-path="url(#terminal-1878493209-line-7)">&quot;</text><text class="terminal-1878493209-r9" x="475.8" y="190.8" textLength="61" clip-path="url(#terminal-1878493209-line-7)">alice</text><text class="terminal-1878493209-r9" x="536.8" y="190.8" textLength="12.2" clip-path="url(#terminal-1878493209-line-7)">&quot;</text><text class="terminal-1878493209-r6" x="549" y="190.8" textLength="12.2" clip-path="url(#terminal-1878493209-line-7)">)</text><text class="terminal-1878493209-r1" x="1098" y="190.8" textLength="12.2" clip-path="url(#terminal-1878493209-line-7)">
</text><text class="terminal-1878493209-r4" x="24.4" y="215.2" textLength="36.6" clip-path="url(#terminal-1878493209-line-8)">&#160;6&#160;</text><text class="terminal-1878493209-r1" x="1098" y="215.2" textLength="12.2" clip-path="url(#terminal-1878493209-line-8)">
</text><text class="terminal-1878493209-r4" x="24.4" y="239.6" textLength="36.6" clip-path="url(#terminal-1878493209-line-9)">&#160;7&#160;</text><text class="terminal-1878493209-r7" x="109.8" y="239.6" textLength="61" clip-path="url(#terminal-1878493209-line-9)">await</text><text class="terminal-1878493209-r6" x="183" y="239.6" textLength="73.2" clip-path="url(#terminal-1878493209-line-9)">memory</text><text class="terminal-1878493209-r5" x="256.2" y="239.6" textLength="12.2" clip-path="url(#terminal-1878493209-line-9)">.</text><text class="terminal-1878493209-r6" x="268.4" y="239.6" textLength="48.8" clip-path="url(#terminal-1878493209-line-9)">save</text><text class="terminal-1878493209-r6" x="317.2" y="239.6" textLength="12.2" clip-path="url(#terminal-1878493209-line-9)">(</text><text class="terminal-1878493209-r9" x="329.4" y="239.6" textLength="12.2" clip-path="url(#terminal-1878493209-line-9)">&quot;</text><text class="terminal-1878493209-r9" x="341.6" y="239.6" textLength="231.8" clip-path="url(#terminal-1878493209-line-9)">My&#160;name&#160;is&#160;Alice,&#160;I</text><text class="terminal-1878493209-r9" x="573.4" y="239.6" textLength="12.2" clip-path="url(#terminal-1878493209-line-9)">&#x27;</text><text class="terminal-1878493209-r9" x="585.6" y="239.6" textLength="256.2" clip-path="url(#terminal-1878493209-line-9)">m&#160;a&#160;backend&#160;engineer.</text><text class="terminal-1878493209-r9" x="841.8" y="239.6" textLength="12.2" clip-path="url(#terminal-1878493209-line-9)">&quot;</text><text class="terminal-1878493209-r6" x="854" y="239.6" textLength="12.2" clip-path="url(#terminal-1878493209-line-9)">)</text><text class="terminal-1878493209-r1" x="1098" y="239.6" textLength="12.2" clip-path="url(#terminal-1878493209-line-9)">
</text><text class="terminal-1878493209-r4" x="24.4" y="264" textLength="36.6" clip-path="url(#terminal-1878493209-line-10)">&#160;8&#160;</text><text class="terminal-1878493209-r7" x="109.8" y="264" textLength="61" clip-path="url(#terminal-1878493209-line-10)">await</text><text class="terminal-1878493209-r6" x="183" y="264" textLength="73.2" clip-path="url(#terminal-1878493209-line-10)">memory</text><text class="terminal-1878493209-r5" x="256.2" y="264" textLength="12.2" clip-path="url(#terminal-1878493209-line-10)">.</text><text class="terminal-1878493209-r6" x="268.4" y="264" textLength="48.8" clip-path="url(#terminal-1878493209-line-10)">save</text><text class="terminal-1878493209-r6" x="317.2" y="264" textLength="12.2" clip-path="url(#terminal-1878493209-line-10)">(</text><text class="terminal-1878493209-r9" x="329.4" y="264" textLength="12.2" clip-path="url(#terminal-1878493209-line-10)">&quot;</text><text class="terminal-1878493209-r9" x="341.6" y="264" textLength="475.8" clip-path="url(#terminal-1878493209-line-10)">I&#160;prefer&#160;dark&#160;mode&#160;and&#160;concise&#160;answers.</text><text class="terminal-1878493209-r9" x="817.4" y="264" textLength="12.2" clip-path="url(#terminal-1878493209-line-10)">&quot;</text><text class="terminal-1878493209-r6" x="829.6" y="264" textLength="12.2" clip-path="url(#terminal-1878493209-line-10)">)</text><text class="terminal-1878493209-r1" x="1098" y="264" textLength="12.2" clip-path="url(#terminal-1878493209-line-10)">
</text><text class="terminal-1878493209-r4" x="24.4" y="288.4" textLength="36.6" clip-path="url(#terminal-1878493209-line-11)">&#160;9&#160;</text><text class="terminal-1878493209-r7" x="109.8" y="288.4" textLength="61" clip-path="url(#terminal-1878493209-line-11)">await</text><text class="terminal-1878493209-r6" x="183" y="288.4" textLength="73.2" clip-path="url(#terminal-1878493209-line-11)">memory</text><text class="terminal-1878493209-r5" x="256.2" y="288.4" textLength="12.2" clip-path="url(#terminal-1878493209-line-11)">.</text><text class="terminal-1878493209-r6" x="268.4" y="288.4" textLength="48.8" clip-path="url(#terminal-1878493209-line-11)">save</text><text class="terminal-1878493209-r6" x="317.2" y="288.4" textLength="12.2" clip-path="url(#terminal-1878493209-line-11)">(</text><text class="terminal-1878493209-r9" x="329.4" y="288.4" textLength="12.2" clip-path="url(#terminal-1878493209-line-11)">&quot;</text><text class="terminal-1878493209-r9" x="341.6" y="288.4" textLength="12.2" clip-path="url(#terminal-1878493209-line-11)">I</text><text class="terminal-1878493209-r9" x="353.8" y="288.4" textLength="12.2" clip-path="url(#terminal-1878493209-line-11)">&#x27;</text><text class="terminal-1878493209-r9" x="366" y="288.4" textLength="500.2" clip-path="url(#terminal-1878493209-line-11)">m&#160;building&#160;a&#160;FastAPI&#160;app&#160;with&#160;PostgreSQL.</text><text class="terminal-1878493209-r9" x="866.2" y="288.4" textLength="12.2" clip-path="url(#terminal-1878493209-line-11)">&quot;</text><text class="terminal-1878493209-r6" x="878.4" y="288.4" textLength="12.2" clip-path="url(#terminal-1878493209-line-11)">)</text><text class="terminal-1878493209-r1" x="1098" y="288.4" textLength="12.2" clip-path="url(#terminal-1878493209-line-11)">
</text><text class="terminal-1878493209-r4" x="24.4" y="312.8" textLength="36.6" clip-path="url(#terminal-1878493209-line-12)">10&#160;</text><text class="terminal-1878493209-r1" x="1098" y="312.8" textLength="12.2" clip-path="url(#terminal-1878493209-line-12)">
</text><text class="terminal-1878493209-r4" x="24.4" y="337.2" textLength="36.6" clip-path="url(#terminal-1878493209-line-13)">11&#160;</text><text class="terminal-1878493209-r10" x="109.8" y="337.2" textLength="524.6" clip-path="url(#terminal-1878493209-line-13)">#&#160;Recall&#160;relevant&#160;memories&#160;in&#160;a&#160;new&#160;session</text><text class="terminal-1878493209-r1" x="1098" y="337.2" textLength="12.2" clip-path="url(#terminal-1878493209-line-13)">
</text><text class="terminal-1878493209-r4" x="24.4" y="361.6" textLength="36.6" clip-path="url(#terminal-1878493209-line-14)">12&#160;</text><text class="terminal-1878493209-r6" x="109.8" y="361.6" textLength="73.2" clip-path="url(#terminal-1878493209-line-14)">result</text><text class="terminal-1878493209-r5" x="195.2" y="361.6" textLength="12.2" clip-path="url(#terminal-1878493209-line-14)">=</text><text class="terminal-1878493209-r7" x="219.6" y="361.6" textLength="61" clip-path="url(#terminal-1878493209-line-14)">await</text><text class="terminal-1878493209-r6" x="292.8" y="361.6" textLength="73.2" clip-path="url(#terminal-1878493209-line-14)">memory</text><text class="terminal-1878493209-r5" x="366" y="361.6" textLength="12.2" clip-path="url(#terminal-1878493209-line-14)">.</text><text class="terminal-1878493209-r6" x="378.2" y="361.6" textLength="73.2" clip-path="url(#terminal-1878493209-line-14)">recall</text><text class="terminal-1878493209-r6" x="451.4" y="361.6" textLength="12.2" clip-path="url(#terminal-1878493209-line-14)">(</text><text class="terminal-1878493209-r9" x="463.6" y="361.6" textLength="12.2" clip-path="url(#terminal-1878493209-line-14)">&quot;</text><text class="terminal-1878493209-r9" x="475.8" y="361.6" textLength="317.2" clip-path="url(#terminal-1878493209-line-14)">What&#160;does&#160;the&#160;user&#160;prefer?</text><text class="terminal-1878493209-r9" x="793" y="361.6" textLength="12.2" clip-path="url(#terminal-1878493209-line-14)">&quot;</text><text class="terminal-1878493209-r6" x="805.2" y="361.6" textLength="12.2" clip-path="url(#terminal-1878493209-line-14)">)</text><text class="terminal-1878493209-r1" x="1098" y="361.6" textLength="12.2" clip-path="url(#terminal-1878493209-line-14)">
</text><text class="terminal-1878493209-r4" x="24.4" y="386" textLength="36.6" clip-path="url(#terminal-1878493209-line-15)">13&#160;</text><text class="terminal-1878493209-r6" x="109.8" y="386" textLength="61" clip-path="url(#terminal-1878493209-line-15)">print</text><text class="terminal-1878493209-r6" x="170.8" y="386" textLength="12.2" clip-path="url(#terminal-1878493209-line-15)">(</text><text class="terminal-1878493209-r6" x="183" y="386" textLength="73.2" clip-path="url(#terminal-1878493209-line-15)">result</text><text class="terminal-1878493209-r5" x="256.2" y="386" textLength="12.2" clip-path="url(#terminal-1878493209-line-15)">.</text><text class="terminal-1878493209-r6" x="268.4" y="386" textLength="146.4" clip-path="url(#terminal-1878493209-line-15)">prompt_block</text><text class="terminal-1878493209-r6" x="414.8" y="386" textLength="12.2" clip-path="url(#terminal-1878493209-line-15)">)</text><text class="terminal-1878493209-r1" x="1098" y="386" textLength="12.2" clip-path="url(#terminal-1878493209-line-15)">
</text><text class="terminal-1878493209-r4" x="24.4" y="410.4" textLength="36.6" clip-path="url(#terminal-1878493209-line-16)">14&#160;</text><text class="terminal-1878493209-r1" x="1098" y="410.4" textLength="12.2" clip-path="url(#terminal-1878493209-line-16)">
</text><text class="terminal-1878493209-r4" x="24.4" y="434.8" textLength="36.6" clip-path="url(#terminal-1878493209-line-17)">15&#160;</text><text class="terminal-1878493209-r6" x="61" y="434.8" textLength="85.4" clip-path="url(#terminal-1878493209-line-17)">asyncio</text><text class="terminal-1878493209-r5" x="146.4" y="434.8" textLength="12.2" clip-path="url(#terminal-1878493209-line-17)">.</text><text class="terminal-1878493209-r6" x="158.6" y="434.8" textLength="36.6" clip-path="url(#terminal-1878493209-line-17)">run</text><text class="terminal-1878493209-r6" x="195.2" y="434.8" textLength="12.2" clip-path="url(#terminal-1878493209-line-17)">(</text><text class="terminal-1878493209-r6" x="207.4" y="434.8" textLength="48.8" clip-path="url(#terminal-1878493209-line-17)">main</text><text class="terminal-1878493209-r6" x="256.2" y="434.8" textLength="12.2" clip-path="url(#terminal-1878493209-line-17)">(</text><text class="terminal-1878493209-r6" x="268.4" y="434.8" textLength="12.2" clip-path="url(#terminal-1878493209-line-17)">)</text><text class="terminal-1878493209-r6" x="280.6" y="434.8" textLength="12.2" clip-path="url(#terminal-1878493209-line-17)">)</text><text class="terminal-1878493209-r1" x="1098" y="434.8" textLength="12.2" clip-path="url(#terminal-1878493209-line-17)">
</text><text class="terminal-1878493209-r4" x="24.4" y="459.2" textLength="36.6" clip-path="url(#terminal-1878493209-line-18)">16&#160;</text><text class="terminal-1878493209-r1" x="1098" y="459.2" textLength="12.2" clip-path="url(#terminal-1878493209-line-18)">
</text><text class="terminal-1878493209-r1" x="1098" y="483.6" textLength="12.2" clip-path="url(#terminal-1878493209-line-19)">
</text><text class="terminal-1878493209-r11" x="0" y="508" textLength="170.8" clip-path="url(#terminal-1878493209-line-20)">───&#160;Output&#160;───</text><text class="terminal-1878493209-r1" x="1098" y="508" textLength="12.2" clip-path="url(#terminal-1878493209-line-20)">
</text><text class="terminal-1878493209-r1" x="1098" y="532.4" textLength="12.2" clip-path="url(#terminal-1878493209-line-21)">
</text><text class="terminal-1878493209-r12" x="0" y="556.8" textLength="24.4" clip-path="url(#terminal-1878493209-line-22)">┌─</text><text class="terminal-1878493209-r12" x="24.4" y="556.8" textLength="366" clip-path="url(#terminal-1878493209-line-22)">──────────────────────────────</text><text class="terminal-1878493209-r2" x="402.6" y="556.8" textLength="170.8" clip-path="url(#terminal-1878493209-line-22)">✓&#160;prompt_block</text><text class="terminal-1878493209-r12" x="585.6" y="556.8" textLength="366" clip-path="url(#terminal-1878493209-line-22)">──────────────────────────────</text><text class="terminal-1878493209-r12" x="951.6" y="556.8" textLength="24.4" clip-path="url(#terminal-1878493209-line-22)">─┐</text><text class="terminal-1878493209-r1" x="1098" y="556.8" textLength="12.2" clip-path="url(#terminal-1878493209-line-22)">
</text><text class="terminal-1878493209-r12" x="0" y="581.2" textLength="12.2" clip-path="url(#terminal-1878493209-line-23)">│</text><text class="terminal-1878493209-r3" x="24.4" y="581.2" textLength="244" clip-path="url(#terminal-1878493209-line-23)">##&#160;Recalled&#160;Memories</text><text class="terminal-1878493209-r12" x="963.8" y="581.2" textLength="12.2" clip-path="url(#terminal-1878493209-line-23)">│</text><text class="terminal-1878493209-r1" x="1098" y="581.2" textLength="12.2" clip-path="url(#terminal-1878493209-line-23)">
</text><text class="terminal-1878493209-r12" x="0" y="605.6" textLength="12.2" clip-path="url(#terminal-1878493209-line-24)">│</text><text class="terminal-1878493209-r1" x="24.4" y="605.6" textLength="549" clip-path="url(#terminal-1878493209-line-24)">-&#160;User&#160;prefers&#160;dark&#160;mode&#160;and&#160;concise&#160;answers.</text><text class="terminal-1878493209-r12" x="963.8" y="605.6" textLength="12.2" clip-path="url(#terminal-1878493209-line-24)">│</text><text class="terminal-1878493209-r1" x="1098" y="605.6" textLength="12.2" clip-path="url(#terminal-1878493209-line-24)">
</text><text class="terminal-1878493209-r12" x="0" y="630" textLength="12.2" clip-path="url(#terminal-1878493209-line-25)">│</text><text class="terminal-1878493209-r1" x="24.4" y="630" textLength="500.2" clip-path="url(#terminal-1878493209-line-25)">-&#160;User&#160;is&#160;a&#160;backend&#160;engineer&#160;named&#160;Alice.</text><text class="terminal-1878493209-r12" x="963.8" y="630" textLength="12.2" clip-path="url(#terminal-1878493209-line-25)">│</text><text class="terminal-1878493209-r1" x="1098" y="630" textLength="12.2" clip-path="url(#terminal-1878493209-line-25)">
</text><text class="terminal-1878493209-r12" x="0" y="654.4" textLength="12.2" clip-path="url(#terminal-1878493209-line-26)">│</text><text class="terminal-1878493209-r1" x="24.4" y="654.4" textLength="597.8" clip-path="url(#terminal-1878493209-line-26)">-&#160;User&#160;is&#160;building&#160;a&#160;FastAPI&#160;app&#160;with&#160;PostgreSQL.</text><text class="terminal-1878493209-r12" x="963.8" y="654.4" textLength="12.2" clip-path="url(#terminal-1878493209-line-26)">│</text><text class="terminal-1878493209-r1" x="1098" y="654.4" textLength="12.2" clip-path="url(#terminal-1878493209-line-26)">
</text><text class="terminal-1878493209-r12" x="0" y="678.8" textLength="12.2" clip-path="url(#terminal-1878493209-line-27)">│</text><text class="terminal-1878493209-r12" x="963.8" y="678.8" textLength="12.2" clip-path="url(#terminal-1878493209-line-27)">│</text><text class="terminal-1878493209-r1" x="1098" y="678.8" textLength="12.2" clip-path="url(#terminal-1878493209-line-27)">
</text><text class="terminal-1878493209-r12" x="0" y="703.2" textLength="12.2" clip-path="url(#terminal-1878493209-line-28)">│</text><text class="terminal-1878493209-r13" x="24.4" y="703.2" textLength="292.8" clip-path="url(#terminal-1878493209-line-28)">Tokens:&#160;42&#160;/&#160;2000&#160;budget</text><text class="terminal-1878493209-r12" x="963.8" y="703.2" textLength="12.2" clip-path="url(#terminal-1878493209-line-28)">│</text><text class="terminal-1878493209-r1" x="1098" y="703.2" textLength="12.2" clip-path="url(#terminal-1878493209-line-28)">
</text><text class="terminal-1878493209-r12" x="0" y="727.6" textLength="976" clip-path="url(#terminal-1878493209-line-29)">└──────────────────────────────────────────────────────────────────────────────┘</text><text class="terminal-1878493209-r1" x="1098" y="727.6" textLength="12.2" clip-path="url(#terminal-1878493209-line-29)">
</text><text class="terminal-1878493209-r1" x="1098" y="752" textLength="12.2" clip-path="url(#terminal-1878493209-line-30)">
</text>
    </g>
    </g>
</svg>
